<svg xmlns="http://www.w3.org/2000/svg" xmlns:cc="http://web.resource.org/cc/" xmlns:svg="http://www.w3.org/2000/svg" id="svg1317" width="612.164" height="613.171"><defs id="defs1319"><marker id="ArrowEnd" markerHeight="3" markerUnits="strokeWidth" markerWidth="4" orient="auto" refX="0" refY="5" viewBox="0 0 10 10"><path id="path1322" d="M 0 0 L 10 5 L 0 10 z"/></marker><marker id="ArrowStart" markerHeight="3" markerUnits="strokeWidth" markerWidth="4" orient="auto" refX="10" refY="5" viewBox="0 0 10 10"><path id="path1325" d="M 10 0 L 0 5 L 10 10 z"/></marker></defs><g id="g8574"><g id="g1327"><path id="path1329" d="M 82.4318 17.9239C 41.0968 17.9239 17.8608 39.2949 17.8608 82.9599L 17.8608 533.082C 17.8608 573.925 38.7518 595.31 80.0528 595.31L 532.077 595.31C 573.38 595.31 594.303 574.99 594.303 533.082L 594.303 82.9599C 594.303 40.3599 573.38 17.9239 530.78 17.9239C 530.78 17.9239 82.2888 17.7819 82.4318 17.9239z" style="stroke:#fff;stroke-width:3.4079999999999999;fill:#000"/></g><g id="g1331"><path id="path1333" d="M 309.337 64.0439C 286.958 66.5479 205.583 103.742 203.208 295.523C 200.708 497.548 286.958 540.048 309.578 539.59L 309.578 406.154C 290.958 406.154 287.212 385.879 282.958 344.048C 280.144 316.369 279.324 282.106 282.958 248.048C 285.51 224.151 289.958 200.825 309.458 200.825L 309.337 64.0439z" style="stroke:none;fill:#fff"/><path id="path1335" d="M 357.583 539.825C 366.208 539.825 372.394 532.798 372.394 524.923L 372.456 524.861C 372.456 524.861 372.394 420.861 372.394 420.798C 372.394 412.548 365.708 406.044 357.583 406.044L 319.784 406.044L 319.784 539.825C 319.784 539.825 357.491 539.883 357.522 539.852L 357.583 539.825z" style="stroke:none;fill:#fff"/><path id="path1337" d="M 357.583 200.825C 366.208 200.825 372.394 193.798 372.394 185.923L 372.456 185.861C 372.456 185.861 372.394 78.8609 372.394 78.7979C 372.394 70.5479 365.708 64.0439 357.583 64.0439L 319.784 64.0439L 319.784 200.825C 319.784 200.825 357.491 200.883 357.522 200.852L 357.583 200.825z" style="stroke:none;fill:#fff"/></g></g></svg>